<svg width="1478" height="555" viewBox="0 0 1478 555" fill="none" xmlns="http://www.w3.org/2000/svg">
<g opacity="0.16" clip-path="url(#clip0_54_2)">
<path d="M10.5102 544.729C15.1084 443.404 79.6478 369.504 131.542 310.22L135.319 305.95C141.231 299.709 155.19 282.795 154.04 262.267C153.384 249.786 147.307 238.455 135.812 228.765C128.75 222.853 122.51 217.434 116.434 212.179C89.5011 189.188 68.3164 170.959 35.472 148.132C23.429 139.812 11.605 131.929 0 124.484V125.634C11.3861 132.969 22.9911 140.742 34.8151 148.953C67.6596 171.78 88.8442 189.845 115.777 213C121.853 218.091 128.258 223.675 135.155 229.422C146.322 239.111 152.398 250.114 153.055 262.267C154.205 282.466 140.41 299.053 134.498 305.293L130.885 309.563C78.8267 369.011 14.1231 443.075 9.52489 544.729C8.868 555.568 4.76244 562.137 0 564.436V565.585C5.09089 563.45 9.85333 556.717 10.5102 544.729Z" fill="#07A1AF"/>
<path d="M33.3371 545.715C37.7711 452.437 99.3544 381.986 148.95 325.329L152.562 321.059C162.908 309.235 171.448 298.725 177.688 289.857C185.407 278.69 199.694 258.162 165.864 225.482C129.243 190.338 89.8296 157.822 48.4456 129.248C31.6949 117.588 15.4369 107.078 0 97.5527V98.7023C15.2727 108.063 31.3664 118.573 47.9529 130.069C89.1727 158.643 128.586 190.995 165.043 226.303C198.38 258.326 184.422 278.361 176.867 289.2C170.627 298.068 162.252 308.578 151.906 320.567L148.128 324.672C98.5333 381.493 36.7858 452.109 32.3518 545.715C30.3811 589.234 22.6627 614.36 8.21111 625.199C5.25511 627.388 2.51807 628.593 0 628.812V629.797C2.79178 629.633 5.58356 628.319 8.70378 626.02C23.4838 615.017 31.3664 589.563 33.3371 545.715Z" fill="#07A1AF"/>
<path d="M434.368 -121.356C427.963 -146.646 376.397 -153.379 316.785 -161.098C302.005 -163.068 286.732 -165.039 271.952 -167.338C206.592 -177.684 146.815 -210.528 88.8442 -242.223C59.9411 -258.153 30.3811 -274.411 0 -287.713V-285.25C29.8884 -271.948 59.12 -256.018 87.8589 -240.253C145.829 -208.394 205.935 -175.549 271.624 -165.203C286.404 -162.74 301.676 -160.769 316.456 -158.798C372.784 -151.573 425.992 -144.511 432.069 -120.863C436.667 -102.306 412.69 -74.3883 358.497 -35.1391C282.626 19.7111 218.908 45.3298 157.982 45.3298C123.331 45.3298 89.0084 36.7902 55.9998 19.7111C35.472 9.2009 17.2433 -3.60845 0 -16.582V-13.626C16.9149 -0.980911 34.8151 11.5 55.0144 21.846C88.3516 38.9251 123.002 47.6289 157.982 47.6289C219.401 47.6289 283.612 21.846 359.975 -33.3327C415.646 -73.7314 439.294 -101.649 434.368 -121.356Z" fill="#07A1AF"/>
<path d="M8.53956 397.095C17.4076 381.493 28.9031 367.37 39.906 353.74C55.9998 334.033 72.422 313.67 81.4542 288.544C97.0553 244.532 66.3458 224.004 33.6656 202.491C30.7096 200.521 27.6988 198.495 24.6333 196.415C19.214 192.802 14.2873 189.353 9.19644 185.905C6.73311 184.263 3.77711 181.963 0 179.336V180.486C3.50341 183.004 6.40467 185.084 8.70378 186.726C13.6304 190.175 18.7213 193.623 24.1407 197.236C27.2061 199.316 30.2169 201.342 33.1729 203.312C65.5247 224.661 95.9058 244.861 80.4689 288.215C71.6009 313.177 55.1787 333.376 39.2491 353.083C28.082 366.714 16.5864 380.837 7.71844 396.602C4.92667 401.2 2.62756 407.276 0 413.845V416.473C0.218963 415.816 0.492667 415.159 0.821111 414.502C3.44867 407.933 5.912 401.693 8.53956 397.095Z" fill="#07A1AF"/>
<path d="M88.8442 324.671C90.2675 322.919 91.7455 321.168 93.2782 319.416C114.299 294.618 136.304 268.835 111.343 238.126C92.1287 214.314 63.2256 194.771 37.6069 177.364C32.1876 173.751 27.2609 170.466 22.3342 167.018C19.0498 164.718 14.4516 161.434 9.36067 157.657C6.40467 155.522 3.28444 153.223 0 150.924V152.073C3.12022 154.373 6.07622 156.507 8.70378 158.478C13.9589 162.255 18.3929 165.54 21.6773 167.839C26.7682 171.287 31.6949 174.572 36.95 178.185C62.5687 195.428 91.4718 215.135 110.686 238.783C134.991 268.835 113.313 294.29 92.4571 318.759C90.9244 320.511 89.4464 322.262 88.0231 324.014C69.6302 346.02 46.1464 375.251 27.5893 407.932C16.4222 427.638 7.06156 448.495 0 469.843V473.128C7.22578 450.794 16.7507 429.116 28.5747 408.424C46.9676 375.908 70.4513 346.512 88.8442 324.671Z" fill="#07A1AF"/>
<path d="M70.1229 -7.71413C95.0847 5.09521 116.269 11.0072 136.797 11.0072C158.31 11.0072 177.524 4.60256 199.694 -2.95167C212.175 -7.22145 226.462 -11.9839 242.72 -16.0894C250.932 -18.0601 257.993 -18.3886 262.756 -18.3886C265.876 -18.3886 268.832 -18.2243 271.788 -18.0601C274.415 -18.0601 277.043 -17.8959 279.67 -17.8959C292.972 -17.8959 303.483 -21.0161 315.142 -36.7815C323.025 -47.2917 325.981 -55.5028 328.444 -62.7286C332.386 -73.403 335.506 -81.9426 352.421 -94.095C356.855 -97.2152 363.095 -99.6786 369.172 -102.142C378.861 -105.919 387.236 -109.203 387.564 -114.787C387.893 -119.385 382.638 -124.476 370.978 -130.717C357.019 -138.271 337.148 -139.42 319.576 -139.42C311.694 -139.42 303.483 -139.092 295.436 -138.928C287.389 -138.599 279.178 -138.435 271.131 -138.435C253.559 -138.435 241.078 -139.585 230.896 -142.376C173.747 -157.813 120.211 -187.209 72.9147 -213.156C48.1171 -226.787 23.9764 -240.089 0 -251.42V-249.449C23.8122 -238.282 47.6244 -225.309 72.0936 -211.842C119.554 -185.731 173.254 -156.335 230.568 -140.734C240.75 -137.942 253.395 -136.793 271.131 -136.793C279.178 -136.793 287.389 -136.957 295.436 -137.285C303.483 -137.45 311.694 -137.778 319.576 -137.778C336.984 -137.778 356.526 -136.793 370.157 -129.403C380.831 -123.491 386.251 -118.728 385.922 -114.951C385.758 -110.353 377.383 -107.069 368.515 -103.62C362.438 -101.157 356.034 -98.6932 351.436 -95.4088C334.028 -82.9279 330.744 -73.8957 326.966 -63.2212C324.339 -56.1597 321.547 -48.1128 313.829 -37.6026C302.662 -22.4941 292.48 -19.5381 279.67 -19.5381C277.043 -19.5381 274.58 -19.7023 271.788 -19.7023C268.832 -19.8666 265.876 -20.0308 262.756 -20.0308C257.993 -20.0308 250.603 -19.7024 242.228 -17.5675C225.97 -13.6261 211.682 -8.69946 199.202 -4.42968C177.032 2.96032 158.146 9.36498 136.797 9.36498C116.434 9.36498 95.5773 3.45299 70.7798 -9.19212C48.2813 -20.6877 27.9178 -36.1246 8.21111 -51.0688C5.47407 -53.1489 2.73704 -55.2291 0 -57.3092V-55.1743C2.40859 -53.4226 4.81719 -51.6162 7.22578 -49.755C26.9324 -34.8108 47.296 -19.3739 70.1229 -7.71413Z" fill="#07A1AF"/>
<path fill-rule="evenodd" clip-rule="evenodd" d="M335.342 349.633C339.612 349.414 343.115 351.002 345.852 354.396C353.571 364.413 352.093 387.404 349.629 397.422C337.477 446.032 311.53 463.275 272.116 489.222C262.427 495.791 252.902 503.181 243.87 510.407C232.703 519.111 221.043 528.307 208.891 535.533C202.815 539.31 197.395 541.281 193.454 541.281C192.359 541.281 191.429 541.171 190.662 540.952C188.582 540.295 187.159 539.036 186.392 537.175C184.586 533.069 185.9 526.172 190.17 517.468C201.501 494.806 220.386 475.756 238.779 457.363C241.845 454.188 244.856 451.068 247.812 448.002C269.982 425.175 289.688 404.483 306.275 381C307.588 379.193 309.231 376.566 310.873 373.938C316.949 363.756 325.16 350.126 335.342 349.633ZM335.342 350.619C325.653 351.111 317.606 364.577 311.694 374.431C310.052 377.058 308.41 379.686 307.096 381.657C290.509 405.14 270.803 425.832 248.633 448.659C245.567 451.725 242.502 454.845 239.436 458.02C221.208 476.413 202.322 495.463 191.155 517.797C186.885 526.172 185.571 532.905 187.214 536.682C187.98 538.325 189.184 539.419 190.826 539.967C194.768 541.116 201.008 539.146 208.398 534.712C220.551 527.486 232.046 518.289 243.213 509.586C252.41 502.36 261.77 494.97 271.624 488.401C310.709 462.454 336.656 445.375 348.644 397.093C351.107 387.24 352.585 364.742 345.031 355.053C342.732 352.097 339.721 350.619 335.999 350.619C335.78 350.619 335.561 350.619 335.342 350.619Z" fill="#07A1AF"/>
<path d="M56.6567 546.864C60.598 461.797 119.225 394.63 166.357 340.765L170.134 336.495C226.134 272.284 223.999 249.95 197.559 224.003C168.82 195.428 123.331 152.731 61.7475 110.033C40.7271 95.5813 20.0351 82.115 0 70.291V72.2617C19.7067 83.9215 40.2344 97.0592 60.9264 111.347C122.346 154.044 167.671 196.742 196.41 225.153C222.028 250.279 224.163 272.284 168.985 335.346L165.208 339.615C117.912 393.809 58.9558 461.14 55.0144 546.864C51.4015 627.169 21.0204 650.817 0 657.55V659.192C21.5131 652.623 52.8795 628.975 56.6567 546.864Z" fill="#07A1AF"/>
<path fill-rule="evenodd" clip-rule="evenodd" d="M359.647 329.433C375.084 349.14 376.069 387.896 372.292 403.005C357.84 460.482 325.817 481.667 285.09 508.764C283.01 510.078 280.93 511.391 278.849 512.705C254.38 528.963 226.627 547.192 210.861 571.989C202.486 585.127 199.366 600.236 196.246 614.687C193.125 629.303 189.841 644.247 181.63 657.221C173.09 670.851 167.343 676.435 161.923 676.435C156.504 676.435 152.07 670.687 147.636 658.534C146.322 654.922 145.665 650.98 145.829 647.203C146.322 635.872 152.727 625.197 159.131 615.016C164.387 606.476 169.313 598.429 170.627 590.218C172.926 576.916 170.134 564.271 167.343 551.954C164.058 536.846 160.609 521.409 166.521 505.151C173.419 485.773 196.246 464.588 214.474 447.673C220.715 441.925 226.463 436.506 231.225 431.744C248.961 413.351 267.354 394.465 283.612 373.445C286.568 369.668 290.017 364.412 293.465 358.665C303.647 342.735 316.128 322.7 330.579 319.251C342.239 316.295 352.093 319.908 359.647 329.433ZM338.298 319.908C335.889 319.908 333.481 320.182 331.072 320.729C317.277 324.178 304.797 343.885 294.943 359.65C291.33 365.234 287.882 370.653 284.926 374.43C268.668 395.615 250.111 414.5 232.375 432.893C227.612 437.656 221.864 443.075 215.624 448.823C197.395 465.738 174.733 486.758 167.999 505.644C162.252 521.409 165.536 536.025 168.985 551.462C171.777 563.943 174.568 576.916 172.269 590.382C170.955 598.922 165.865 607.133 160.445 615.837C154.369 625.854 147.964 636.364 147.472 647.203C147.472 650.98 147.964 654.429 149.278 658.042C153.219 669.209 157.325 674.792 161.923 674.792C167.835 674.792 174.568 665.432 180.316 656.4C188.363 643.754 191.483 628.81 194.603 614.359C197.724 599.743 201.008 584.47 209.383 571.168C225.313 546.042 253.395 527.649 278.028 511.391C280.109 510.078 282.134 508.709 284.105 507.286C324.503 480.518 356.527 459.497 370.65 402.676C374.919 385.597 372.128 348.154 358.333 330.418C352.749 323.357 346.016 319.908 338.298 319.908Z" fill="#07A1AF"/>
<path fill-rule="evenodd" clip-rule="evenodd" d="M348.315 266.865C347.822 273.105 347.166 279.017 350.45 284.108C355.048 291.334 360.96 295.932 367.201 300.695C374.426 306.114 381.816 311.698 387.728 321.715C400.866 344.214 411.048 384.777 404.479 411.052C386.907 481.011 346.344 507.943 303.318 536.354C254.873 568.541 204.621 601.714 186.228 701.725C181.465 727.673 173.583 740.81 162.58 740.81C145.008 740.81 126.944 705.995 121.688 681.198C111.671 634.559 114.955 579.051 131.213 516.154C142.052 473.949 173.09 443.568 202.978 414.008C218.415 398.9 234.181 383.134 246.99 366.219C250.11 362.114 255.201 356.53 260.949 349.961C278.521 330.419 304.96 300.695 300.691 284.601C299.213 278.689 295.436 272.613 291.494 266.208C287.06 259.311 282.626 252.249 280.984 245.023C278.685 234.677 283.119 232.543 286.075 231.065C287.389 230.408 288.046 229.915 288.21 229.258C288.702 226.795 282.955 219.569 278.521 214.314C273.594 208.402 259.142 200.683 245.019 193.129C228.269 184.097 212.339 175.557 210.697 169.317C207.905 158.971 207.741 152.238 210.204 148.953C211.518 147.421 213.27 146.654 215.459 146.654C234.509 146.654 290.673 207.745 307.424 226.466L307.916 226.959C313.828 231.393 318.919 232.543 323.846 233.692C331.072 235.17 337.969 236.648 345.688 247.815C349.629 253.563 348.972 260.296 348.315 266.865ZM346.18 266.537C346.673 260.296 347.33 254.22 343.881 249.129C336.491 238.619 330.415 237.305 323.353 235.827C318.427 234.842 312.843 233.692 306.438 228.765C306.438 228.765 306.219 228.546 305.782 228.109C271.459 189.845 229.747 148.953 215.459 148.953C213.927 148.953 212.832 149.446 212.175 150.431C210.697 152.238 209.712 156.836 212.832 168.824C214.31 173.915 231.225 183.112 246.169 191.159C260.456 198.713 275.072 206.595 280.327 212.836C289.524 223.675 291.002 227.287 290.509 229.751C290.18 231.557 288.538 232.378 287.06 233.035C284.433 234.349 281.312 235.991 283.283 244.531C284.925 251.264 289.195 258.325 293.301 265.059C297.406 271.627 301.348 277.704 302.99 283.944C307.424 301.352 281.641 330.419 262.591 351.604C256.843 358.008 251.917 363.592 248.796 367.697C235.987 384.777 220.058 400.542 204.621 415.65C174.896 444.882 144.187 475.263 133.512 516.647C117.254 579.216 114.134 634.394 123.823 680.705C129.571 707.473 147.636 738.511 162.58 738.511C172.105 738.511 179.495 725.538 183.929 701.233C202.65 600.4 253.23 566.899 302.004 534.383C344.702 506.301 384.937 479.533 402.18 410.559C408.585 384.777 398.731 345.035 385.758 322.865C380.01 313.34 372.784 307.756 365.887 302.501C359.482 297.575 353.242 292.976 348.479 285.422C344.866 279.674 345.523 272.941 346.18 266.537Z" fill="#07A1AF"/>
<path d="M0 34.6547C110.686 97.3876 230.075 197.07 251.917 246.666C264.89 276.39 233.196 312.026 193.29 357.023C147.636 408.096 90.9791 471.814 87.5304 548.342C83.2607 641.456 37.1142 679.72 0 691.215V693.679C37.9353 682.183 85.3955 643.427 89.8295 548.342C93.2782 472.8 149.606 409.41 194.932 358.501C235.495 312.847 267.518 276.883 253.888 245.68C232.046 195.757 111.507 95.2527 0 32.1914V34.6547Z" fill="#07A1AF"/>
<path d="M30.7096 269.821C29.0673 259.146 21.8416 249.786 8.37533 240.753C5.6383 239.002 2.84652 237.195 0 235.334V236.484C2.62756 238.235 5.25511 239.932 7.88267 241.574C21.0204 250.442 28.082 259.639 29.7242 269.985C32.3518 286.9 19.3782 304.472 3.44867 324.014C2.46333 325.328 1.31378 326.97 0 328.776V330.419C1.478 328.284 2.956 326.313 4.26978 324.671C20.3636 304.964 33.3371 287.228 30.7096 269.821Z" fill="#07A1AF"/>
<path d="M59.7769 280.823C68.3164 256.847 59.6127 247.322 21.0204 221.703C17.955 219.623 14.8347 217.543 11.6598 215.463C7.71844 212.671 3.77711 210.044 0 207.416V208.73C3.61289 211.193 7.39 213.656 11.1671 216.284C14.3421 218.364 17.4623 220.444 20.5278 222.524C58.6273 247.815 67.1669 257.175 58.7916 280.495C51.2373 301.68 36.7858 319.58 21.3489 338.63C14.1231 347.333 6.89733 356.366 0 366.055V367.697C7.06156 357.679 14.6158 348.319 22.17 339.122C37.6069 320.072 52.2227 302.172 59.7769 280.823Z" fill="#07A1AF"/>
<path fill-rule="evenodd" clip-rule="evenodd" d="M321.547 406.126C323.354 408.426 322.697 413.188 322.368 414.502C321.055 420.414 317.606 427.804 312.679 434.537C307.424 441.598 296.914 453.422 283.776 453.751H283.612C283.283 453.751 283.01 453.751 282.791 453.751C280.984 453.587 280.327 452.601 279.999 451.944C278.849 449.153 281.641 444.226 288.21 436.343L288.374 436.179C290.345 433.661 292.316 431.198 294.286 428.789C297.407 425.012 300.527 421.071 303.811 417.294C304.359 416.637 305.016 415.87 305.782 414.994C309.231 410.56 313.993 404.648 318.591 404.648H318.756C319.905 404.813 320.89 405.141 321.547 406.126ZM320.233 407.112C319.905 406.564 319.412 406.291 318.756 406.291C314.65 406.291 310.052 412.203 307.096 415.98C306.329 416.965 305.618 417.786 304.961 418.443C301.676 422.22 298.556 425.997 295.6 429.774C293.629 432.292 291.659 434.756 289.688 437.164L289.36 437.493C281.149 447.182 281.149 450.302 281.477 451.288C281.641 451.452 281.805 451.944 282.955 452.109C283.174 452.109 283.393 452.109 283.612 452.109C296.093 451.78 306.275 440.285 311.366 433.552C316.128 426.983 319.577 419.921 320.726 414.173C321.219 411.874 321.383 408.59 320.233 407.112Z" fill="#07A1AF"/>
<path fill-rule="evenodd" clip-rule="evenodd" d="M657.053 737.854C631.27 737.854 613.041 723.731 593.827 708.787C582.168 699.755 570.015 690.23 555.892 683.825C543.411 678.241 528.795 675.45 511.224 675.45C474.109 675.45 430.755 687.931 392.491 698.933C361.289 707.966 331.729 716.505 311.037 716.505C298.556 716.505 289.852 713.385 284.761 706.98C278.685 699.426 277.7 687.109 281.641 669.702C290.016 632.588 337.805 588.248 379.846 549.327C405.136 525.679 429.113 503.509 441.593 485.445C481.664 427.803 494.966 325.328 450.79 264.401C439.623 249.129 420.573 233.692 400.374 217.434C356.855 182.29 307.588 142.549 327.623 91.4754C337.148 67.499 359.975 56.6604 384.28 45.1648C399.06 38.1032 414.497 30.8774 426.649 20.203C437.159 11.0066 445.699 1.81011 453.91 -6.89366C475.259 -29.8848 492.174 -47.9492 527.81 -47.9492C533.394 -47.9492 539.47 -47.4565 545.875 -46.6354C633.733 -34.1545 736.537 -15.1048 844.595 54.197C963.327 130.396 1073.68 210.372 1120 350.125C1140.03 410.723 1131.16 482.324 1097.99 528.142C1075.49 559.345 1044.12 575.767 1007.17 575.767C994.037 575.767 980.407 573.796 966.283 569.691C867.914 541.28 869.064 451.451 870.213 364.577C871.035 295.604 872.02 224.331 823.574 183.276C807.152 169.317 802.225 165.211 796.313 165.211C793.85 165.211 791.223 165.868 787.445 166.853C781.533 168.167 773.487 170.302 759.692 171.452C749.51 172.437 742.284 172.765 736.537 172.93C717.323 173.587 717.323 173.587 689.076 199.205L688.748 199.534C680.537 206.924 668.713 212.343 656.232 218.091C638.332 226.466 619.775 235.17 613.206 250.278C604.338 270.806 612.549 330.583 617.804 356.202C624.209 386.419 643.587 414.501 660.83 439.134L664.443 444.389C670.355 453.093 676.76 462.125 683 470.665C719.457 521.245 757.229 573.632 756.243 639.157C755.586 682.019 708.947 732.435 665.264 737.361C662.527 737.69 659.79 737.854 657.053 737.854ZM594.813 707.473C613.863 722.253 631.927 736.212 657.053 736.212C659.681 736.212 662.363 736.048 665.1 735.719C707.962 730.957 753.944 681.197 754.601 639.157C755.586 574.125 717.979 522.066 681.686 471.65C675.446 462.946 669.041 454.078 662.965 445.374L659.352 440.119C642.109 415.322 622.566 387.075 616.162 356.53C610.907 330.747 602.695 270.642 611.728 249.621C618.461 234.02 637.346 225.152 655.575 216.613C667.892 211.029 679.551 205.61 687.598 198.22L687.927 197.891C716.666 171.944 716.666 171.944 736.372 171.287C742.284 171.123 749.346 170.795 759.528 169.974C773.158 168.66 781.205 166.689 786.953 165.211C800.583 161.927 801.24 162.091 824.56 181.962C873.662 223.51 872.677 295.275 871.856 364.577C871.363 407.932 870.706 452.6 882.53 489.057C895.668 529.62 923.093 555.403 966.612 568.048C980.735 572.154 994.201 574.125 1007.17 574.125C1043.47 574.125 1074.51 557.867 1096.68 527.157C1129.52 481.667 1138.22 410.888 1118.35 350.782C1072.37 211.358 962.178 131.546 843.609 55.5108C736.044 -13.4626 633.405 -32.5123 545.71 -44.9932C539.306 -45.9785 533.394 -46.307 527.81 -46.307C492.995 -46.307 476.244 -28.4068 455.06 -5.74409C446.849 2.95969 438.309 12.1561 427.635 21.5168C415.482 32.1913 399.881 39.5812 384.937 46.6428C360.96 57.9741 338.462 68.6486 329.265 92.1324C309.559 142.056 358.333 181.469 401.523 216.12C421.723 232.542 440.772 247.979 452.104 263.416C496.608 324.835 483.306 428.295 442.907 486.43C430.426 504.494 406.286 526.829 380.831 550.477C338.955 589.397 291.494 633.409 283.283 670.03C279.342 686.945 280.327 698.769 286.075 705.995C290.837 711.907 299.049 714.863 311.037 714.863C331.4 714.863 360.96 706.323 392.163 697.291C430.426 686.288 473.945 673.807 511.224 673.807C529.124 673.807 543.904 676.599 556.549 682.347C571.001 688.916 583.153 698.277 594.813 707.473Z" fill="#07A1AF"/>
<path fill-rule="evenodd" clip-rule="evenodd" d="M1448.11 242.232C1489.66 271.135 1476.03 291.992 1453.37 326.478L1452.05 328.449C1450.74 330.584 1449.26 332.883 1447.95 335.182C1442.04 345.035 1435.79 355.053 1426.93 355.053C1425.72 355.053 1424.52 354.889 1423.31 354.56C1420.58 353.794 1417.73 352.097 1414.77 349.469C1407.22 342.736 1404.1 329.27 1401.64 318.267C1401.14 315.64 1400.65 313.34 1399.99 311.206C1394.74 290.678 1387.51 271.792 1380.45 253.564C1379.47 250.936 1378.15 247.816 1376.84 244.531C1376.18 242.889 1375.2 240.59 1373.88 238.127C1368.96 227.452 1361.4 211.523 1364.85 204.461C1367.64 199.042 1371.91 196.25 1377.66 196.25C1392.44 196.25 1413.3 214.479 1425.78 225.317C1429.06 228.273 1431.69 230.408 1433.33 231.722C1438.75 235.663 1444.01 239.44 1448.11 242.232ZM1447.13 243.71C1443.02 240.754 1437.77 236.977 1432.35 233.036C1430.54 231.722 1428.08 229.423 1424.79 226.631C1412.48 215.792 1391.78 197.892 1377.66 197.892C1372.41 197.892 1368.79 200.356 1366.33 205.282C1363.21 211.523 1370.93 227.616 1375.36 237.306C1376.67 239.933 1377.66 242.232 1378.32 243.874C1379.79 247.159 1380.94 250.279 1382.09 252.907C1388.99 271.3 1396.22 290.185 1401.64 310.713C1402.13 312.848 1402.79 315.311 1403.28 317.939C1405.74 328.613 1408.7 341.915 1415.76 348.156C1418.61 350.674 1421.23 352.261 1423.64 352.918C1424.74 353.246 1425.83 353.411 1426.93 353.411C1434.97 353.411 1440.89 343.722 1446.47 334.361C1447.95 332.062 1449.26 329.763 1450.74 327.628L1452.05 325.493C1474.06 291.992 1487.36 271.628 1447.13 243.71Z" fill="#07A1AF"/>
<path d="M1460.26 194.771C1453.04 189.516 1445.81 183.604 1438.09 177.364C1414.61 158.15 1388.17 136.637 1364.36 136.637C1359.6 136.637 1355.16 137.458 1350.73 139.1C1308.52 155.03 1314.6 199.534 1321.99 224.66C1326.42 239.933 1332.17 255.205 1337.92 269.821C1344.32 287.064 1351.22 304.636 1355.82 322.701C1358.61 333.539 1360.09 345.035 1361.57 356.202C1365.67 390.196 1369.78 422.219 1415.1 422.219C1418.72 422.219 1422.49 422.055 1426.6 421.562C1431.69 421.07 1435.96 420.249 1439.57 419.099C1451.56 415.322 1455.17 407.932 1460.76 396.929C1462.4 393.48 1464.21 389.703 1466.5 385.598C1470.12 379.357 1473.89 373.445 1478 367.697V366.055C1473.73 372.131 1469.46 378.536 1465.68 385.105C1463.38 389.211 1461.41 393.152 1459.77 396.436C1454.52 407.275 1450.9 414.501 1439.24 418.278C1435.79 419.263 1431.53 420.084 1426.43 420.577C1422.49 421.07 1418.55 421.234 1415.1 421.234C1370.6 421.234 1366.82 391.017 1362.55 356.038C1361.07 344.871 1359.6 333.375 1356.8 322.536C1352.04 304.472 1345.31 286.736 1338.74 269.493C1333.16 254.877 1327.41 239.768 1322.81 224.331C1315.58 199.534 1309.67 155.687 1351.06 140.085C1355.33 138.279 1359.76 137.622 1364.36 137.622C1387.84 137.622 1414.12 159.135 1437.44 178.185C1445.16 184.425 1452.38 190.337 1459.61 195.593C1465.19 199.534 1469.95 203.147 1473.57 205.61C1474.99 206.595 1476.47 207.636 1478 208.73V207.417C1476.69 206.541 1475.37 205.665 1474.06 204.789C1470.45 202.326 1465.68 198.713 1460.26 194.771Z" fill="#07A1AF"/>
<path d="M1359.92 -282.787C1355.65 -282.787 1351.44 -282.842 1347.28 -282.951C1343.34 -282.951 1339.45 -282.951 1335.62 -282.951C1313.12 -282.951 1295.39 -281.802 1275.68 -275.725C1265.33 -272.605 1255.81 -267.843 1246.45 -263.08C1230.85 -255.198 1216.23 -247.643 1198.66 -247.643C1195.7 -247.643 1192.8 -247.862 1189.95 -248.3C1176.98 -250.107 1167.13 -257.825 1157.77 -265.215C1147.26 -273.426 1137.24 -281.309 1123.28 -281.309C1122.08 -281.309 1120.82 -281.254 1119.5 -281.145C1110.8 -280.324 1097 -272.441 1083.7 -265.051C1075 -260.124 1066.95 -255.526 1061.2 -253.555C1052.83 -250.435 1046.59 -248.957 1041.99 -247.808C1028.2 -244.523 1026.39 -243.374 1019.66 -217.919C1017.85 -210.858 1016.54 -204.289 1015.22 -197.884C1010.46 -174.4 1006.52 -155.679 981.392 -137.943C964.477 -125.955 942.964 -120.207 915.703 -120.207C888.607 -120.207 860.36 -125.791 835.399 -130.881C822.261 -133.509 809.944 -135.972 800.912 -136.958C795.493 -137.45 787.282 -137.779 778.906 -137.779C754.766 -137.779 726.519 -128.911 724.549 -116.266C723.563 -110.354 728.326 -101.321 755.915 -92.4534L759.035 -91.4681C864.302 -57.6383 937.873 -13.6267 1012.59 60.766C1033.29 81.1295 1049.05 90.8186 1062.19 90.8186C1065.26 90.8186 1068.27 90.2712 1071.22 89.1764C1085.18 83.9213 1095.36 66.1853 1107.35 45.6575C1113.43 35.1473 1120.32 23.1591 1128.54 11.4993C1168.11 -44.3363 1225.1 -85.2276 1288.82 -103.456C1307.54 -108.876 1325.93 -111.503 1343.34 -111.503C1399.99 -111.503 1440.06 -83.7496 1478 -55.1749V-57.3098C1440.23 -85.7203 1400.16 -113.145 1343.34 -113.145C1325.77 -113.145 1307.37 -110.518 1288.32 -105.098C1224.28 -86.7056 1167.13 -45.65 1127.22 10.6782C1119.01 22.1738 1111.95 34.3262 1105.87 44.8364C1094.21 65.0357 1084.03 82.6075 1070.56 87.5342C1067.94 88.629 1065.15 89.1764 1062.19 89.1764C1049.38 89.1764 1034.11 79.6515 1013.74 59.4522C938.859 -14.9405 865.123 -59.1163 759.528 -93.1103L756.408 -94.0956C735.716 -100.664 725.041 -108.547 726.191 -116.101C727.833 -126.612 752.959 -136.136 778.906 -136.136C787.282 -136.136 795.328 -135.808 800.584 -135.315C809.78 -134.33 822.097 -131.867 835.07 -129.239C860.032 -124.148 888.442 -118.565 915.703 -118.565C943.293 -118.565 965.134 -124.477 982.378 -136.629C1008 -154.858 1011.94 -173.743 1016.86 -197.556C1018.18 -203.96 1019.49 -210.529 1021.3 -217.427C1028.03 -242.717 1029.35 -243.045 1042.32 -246.165C1046.92 -247.315 1053.32 -248.793 1061.7 -251.913C1067.61 -254.048 1075.82 -258.646 1084.52 -263.573C1097 -270.635 1111.29 -278.681 1119.67 -279.503C1120.87 -279.612 1122.08 -279.667 1123.28 -279.667C1136.75 -279.667 1146.44 -271.948 1156.78 -263.901C1166.31 -256.347 1176.16 -248.629 1189.63 -246.658C1192.69 -246.22 1195.7 -246.001 1198.66 -246.001C1216.56 -246.001 1232.16 -253.884 1247.27 -261.602C1256.46 -266.201 1265.99 -271.127 1276.17 -274.247C1295.55 -280.159 1313.29 -281.309 1335.62 -281.309C1339.45 -281.309 1343.34 -281.309 1347.28 -281.309C1351.44 -281.199 1355.65 -281.145 1359.92 -281.145C1379.96 -281.145 1397.86 -278.846 1414.77 -274.083C1436.12 -268.007 1456.98 -259.467 1478 -249.45V-251.421C1457.14 -261.11 1436.45 -269.485 1415.27 -275.561C1398.19 -280.488 1380.12 -282.787 1359.92 -282.787Z" fill="#07A1AF"/>
<path d="M1461.09 223.675C1457.14 221.048 1452.05 217.271 1446.63 213.33C1438.92 207.746 1431.53 201.67 1423.48 195.101C1421.73 193.678 1419.81 192.09 1417.73 190.338C1404.43 179.007 1386.36 163.734 1369.78 163.734C1365.18 163.734 1360.91 164.884 1356.97 167.183C1328.23 185.083 1345.47 227.617 1355.82 253.071C1357.13 256.192 1358.28 259.147 1359.27 261.611C1366 279.347 1373.06 297.576 1378.15 316.954C1378.97 320.567 1379.96 324.836 1380.94 329.27C1385.54 349.962 1391.95 378.209 1407.71 388.39C1410.34 390.033 1413.02 391.073 1415.76 391.511C1416.64 391.62 1417.51 391.675 1418.39 391.675C1437.77 391.675 1456.98 362.279 1470.94 340.93C1473.57 336.989 1475.92 333.485 1478 330.42V328.778C1475.7 332.062 1473.07 336.004 1470.12 340.438C1456.32 361.622 1437.11 390.69 1418.39 390.69C1417.51 390.69 1416.69 390.635 1415.92 390.525C1413.3 390.197 1410.72 389.212 1408.21 387.569C1392.77 377.552 1386.53 349.634 1381.93 329.106C1380.94 324.508 1379.96 320.238 1378.97 316.625C1374.05 297.411 1366.99 279.018 1360.25 261.282C1359.27 258.655 1358.12 255.863 1356.8 252.743C1346.62 227.617 1329.38 185.412 1357.46 168.004C1361.24 165.869 1365.34 164.72 1369.78 164.72C1386.04 164.72 1403.94 179.828 1417.07 190.995C1419.15 192.747 1421.12 194.389 1422.99 195.922C1430.87 202.327 1438.26 208.567 1446.14 214.151C1451.4 218.092 1456.65 221.869 1460.43 224.497C1465.52 228.109 1470.77 231.558 1476.36 235.335C1476.91 235.664 1477.45 236.047 1478 236.485V235.335C1477.56 235.007 1477.18 234.733 1476.85 234.514C1471.27 230.737 1466.18 227.288 1461.09 223.675Z" fill="#07A1AF"/>
<path d="M1290.29 456.706C1292.1 459.169 1295.71 462.453 1304.42 463.274C1337.26 465.902 1386.86 470.008 1428.73 508.107L1429.23 508.6C1443.51 521.738 1455.17 538.16 1463.71 557.866C1466.18 563.122 1470.12 566.242 1474.39 566.242C1475.59 566.242 1476.8 566.023 1478 565.585V564.435C1476.85 564.928 1475.54 565.256 1474.39 565.256C1470.45 565.256 1466.83 562.465 1464.7 557.374C1455.99 537.667 1444.33 521.081 1429.88 507.943L1429.39 507.45C1387.19 469.022 1337.43 464.917 1304.42 462.289C1296.04 461.632 1292.76 458.512 1291.12 456.213C1286.85 450.794 1286.35 442.254 1286.85 439.626C1291.44 419.591 1297.03 394.63 1294.89 367.204C1291.28 320.894 1272.89 280.988 1254.82 242.56C1240.53 211.522 1224.28 176.542 1229.86 160.613C1239.88 132.202 1281.1 91.4753 1298.34 75.2173C1309.34 64.8713 1322.32 59.6162 1337.1 59.6162C1345.47 59.6162 1352.7 61.4226 1357.3 62.9006C1387.51 72.754 1430.38 94.924 1478 125.634V124.484C1430.54 93.9386 1387.84 71.7686 1357.63 62.0795C1353.03 60.4373 1345.64 58.6309 1337.1 58.6309C1322.15 58.6309 1308.85 64.0502 1297.68 74.5604C1280.44 90.6542 1239.06 131.546 1228.87 160.284C1223.13 176.542 1239.55 211.85 1254 242.888C1271.9 281.316 1290.46 321.058 1293.91 367.204C1296.04 394.465 1290.46 419.427 1285.86 439.462C1285.37 442.254 1285.86 451.122 1290.29 456.706Z" fill="#07A1AF"/>
<path d="M1352.04 426.982C1359.6 431.088 1369.78 432.895 1379.79 434.537C1387.18 435.851 1394.74 437.164 1400.98 439.299C1404.76 440.777 1409.19 442.912 1413.79 445.047C1423.15 449.809 1433.82 455.065 1443.51 455.065C1445.37 455.065 1447.18 454.846 1448.93 454.408C1449.37 454.298 1449.81 454.189 1450.25 454.079C1464.2 449.974 1471.6 432.402 1478 416.472V413.845C1478 413.845 1477.94 413.899 1477.84 414.009C1471.43 430.431 1464.04 448.988 1449.92 453.094C1449.48 453.203 1449.1 453.313 1448.77 453.422C1447.13 453.86 1445.37 454.079 1443.51 454.079C1433.99 454.079 1423.48 448.824 1414.12 444.226C1409.52 441.927 1405.25 439.792 1401.31 438.314C1394.9 436.179 1387.35 434.865 1379.96 433.551C1370.11 431.909 1359.92 430.103 1352.53 426.161C1336.44 417.293 1338.08 401.035 1339.89 383.792C1340.55 376.895 1341.2 369.997 1340.71 363.593C1336.6 308.907 1316.24 265.388 1296.53 223.183C1287.67 203.969 1287.01 182.948 1294.73 164.063C1303.1 143.535 1320.67 126.948 1342.84 118.573C1349.74 115.946 1356.97 114.632 1364.36 114.632C1396.05 114.632 1425.78 138.937 1452.05 160.286C1459.44 166.362 1466.5 172.11 1473.24 177.036C1474.88 178.35 1476.52 179.5 1478 180.485V179.335C1476.69 178.35 1475.26 177.31 1473.73 176.215C1467 171.288 1460.1 165.541 1452.55 159.465C1426.27 137.951 1396.38 113.646 1364.36 113.646C1356.97 113.646 1349.58 114.96 1342.52 117.588C1320.02 126.127 1302.28 142.878 1293.91 163.57C1286.02 182.784 1286.68 204.133 1295.71 223.511C1315.26 265.716 1335.62 309.235 1339.72 363.757C1340.22 369.997 1339.56 376.895 1338.9 383.628C1337.1 400.379 1335.29 417.786 1352.04 426.982Z" fill="#07A1AF"/>
<path d="M1359.92 -249.613C1332.34 -249.613 1302.94 -244.687 1271.74 -239.267C1236.76 -233.355 1200.46 -227.115 1161.87 -227.115C1159.03 -227.115 1156.29 -227.17 1153.66 -227.279C1140.2 -227.608 1128.86 -229.742 1118.85 -231.713C1110.14 -233.52 1102.75 -234.833 1095.53 -234.833C1078.45 -234.833 1065.97 -225.965 1052.17 -203.959C1045.6 -193.285 1040.84 -180.64 1036.08 -168.323C1027.87 -146.646 1019.33 -124.147 1000.61 -110.845C994.037 -106.247 981.721 -102.634 968.583 -99.0215C945.592 -92.4526 919.48 -84.8984 916.032 -69.4615C911.598 -50.0833 951.504 -23.4793 973.017 -9.19195C976.958 -6.56439 980.407 -4.26528 982.706 -2.62306C1007.83 15.9341 1028.69 28.2507 1048.39 28.2507C1051.13 28.2507 1053.81 27.977 1056.44 27.4296C1072.21 24.6378 1086.49 13.4707 1101.44 -7.54973C1145.45 -69.6257 1208.84 -114.951 1279.62 -135.315C1301.46 -141.555 1322.81 -144.675 1343.34 -144.675C1399.99 -144.675 1441.87 -121.848 1478 -96.3939V-97.5435C1441.87 -122.998 1399.99 -145.661 1343.34 -145.661C1322.81 -145.661 1301.3 -142.54 1279.46 -136.3C1208.35 -115.936 1144.79 -70.4468 1100.62 -8.20661C1085.84 12.6496 1071.71 23.6525 1056.28 26.4443C1053.65 26.9917 1051.02 27.2654 1048.39 27.2654C1028.85 27.2654 1008.16 14.9487 983.199 -3.27994C980.9 -5.08638 977.451 -7.3855 973.51 -10.0131C952.325 -24.1362 912.747 -50.4117 917.017 -69.2973C920.302 -84.2415 946.084 -91.4673 968.747 -98.0362C982.049 -101.813 994.53 -105.426 1001.1 -110.024C1020.15 -123.491 1028.69 -146.153 1037.06 -167.995C1041.66 -180.147 1046.59 -192.792 1052.99 -203.303C1066.62 -224.98 1078.94 -233.848 1095.53 -233.848C1102.59 -233.848 1110.14 -232.534 1118.68 -230.728C1128.7 -228.757 1140.2 -226.622 1153.66 -226.294C1156.29 -226.184 1159.03 -226.129 1161.87 -226.129C1200.63 -226.129 1236.92 -232.37 1271.9 -238.446C1303.1 -243.701 1332.34 -248.628 1359.92 -248.628C1376.84 -248.628 1391.95 -246.821 1405.91 -242.716C1429.72 -235.983 1453.7 -225.473 1478 -213.32V-214.47C1453.7 -226.622 1429.88 -236.968 1406.07 -243.701C1392.11 -247.643 1377 -249.613 1359.92 -249.613Z" fill="#07A1AF"/>
<path d="M1330.86 444.718C1337.59 446.36 1344.16 447.838 1350.4 449.316C1384.89 457.363 1414.45 464.26 1444.17 491.029L1444.66 491.685C1451.56 497.762 1456.98 500.718 1461.25 500.718C1461.91 500.718 1462.51 500.663 1463.06 500.553C1469.46 499.075 1472.74 490.043 1476.36 478.548C1476.91 476.686 1477.45 474.88 1478 473.128V469.844C1477.12 472.69 1476.25 475.482 1475.37 478.219C1471.92 489.551 1468.8 498.254 1462.89 499.568C1458.62 500.553 1453.04 497.762 1445.32 490.864L1444.83 490.372C1414.94 463.275 1385.21 456.378 1350.73 448.495C1344.32 447.017 1337.75 445.375 1331.02 443.733C1307.04 437.656 1310.99 414.994 1314.93 393.152C1316.73 383.627 1318.54 373.61 1317.88 365.399C1313.94 314.982 1294.56 273.106 1275.68 232.871C1273.54 227.945 1271.08 223.182 1268.78 218.748C1256.63 195.1 1246.28 174.572 1261.23 149.446C1272.39 130.561 1289.14 114.96 1305.4 100.015C1308.36 97.2784 1311.26 94.5961 1314.11 91.9686C1320.35 86.0566 1328.89 83.1006 1339.56 83.1006C1379.96 83.1006 1442.2 126.127 1478 152.074V150.924C1442.04 124.813 1379.96 82.1152 1339.56 82.1152C1328.72 82.1152 1319.85 85.2355 1313.45 91.1475C1310.6 93.8845 1307.7 96.6215 1304.75 99.3586C1288.49 114.303 1271.57 129.904 1260.41 148.954C1245.13 174.572 1256.14 196.25 1267.96 219.077C1270.26 223.675 1272.56 228.437 1274.86 233.2C1293.58 273.434 1312.96 315.147 1316.9 365.563C1317.55 373.61 1315.75 383.463 1314.11 392.988C1310 415.322 1305.9 438.477 1330.86 444.718Z" fill="#07A1AF"/>
<path fill-rule="evenodd" clip-rule="evenodd" d="M649.171 900.598C650.156 895.836 647.036 889.924 644.244 884.34C640.631 877.771 637.018 870.71 639.81 864.962C643.751 856.423 651.141 855.109 657.71 853.959C662.637 853.138 667.399 852.317 670.027 848.54C674.954 841.807 677.417 833.431 679.716 825.385C683.165 813.725 686.285 802.722 696.467 796.317C709.933 787.778 721.264 786.464 732.267 784.986C746.719 783.179 760.349 781.537 775.786 762.652C796.149 737.854 811.094 698.441 815.856 657.549C825.381 574.781 776.279 512.87 733.088 458.184C694.824 409.738 661.651 367.861 675.61 321.879C690.39 272.941 731.61 247.322 764.619 247.322C782.026 247.322 796.971 253.727 807.974 266.044C823.739 283.451 829.815 311.205 826.038 346.348C816.185 436.342 819.469 547.52 933.768 608.447C970.882 628.154 1009.15 637.843 1050.86 637.843C1104.39 637.843 1154.15 621.749 1198 607.626C1233.64 596.13 1264.51 586.277 1291.44 586.277C1326.92 586.277 1351.06 604.506 1367.31 643.919C1407.71 742.124 1368.79 823.906 1342.02 863.812C1297.19 930.651 1233.64 966.78 1196.69 966.78C1184.7 966.78 1175.5 963.167 1169.1 956.27C1112.44 895.015 1039.69 863.812 953.31 863.812C926.87 863.812 898.624 866.769 869.393 872.516C856.583 874.98 842.624 877.114 828.009 879.414C790.73 885.326 748.525 891.894 717.816 905.689C711.411 908.645 700.901 918.991 689.569 929.994C671.833 947.402 651.798 966.944 638.989 966.944C637.785 966.944 636.635 966.725 635.54 966.287C629.628 964.317 626.015 961.032 624.537 956.598C621.089 945.759 631.27 930.158 639.646 917.677C644.408 910.616 648.514 904.375 649.171 900.598ZM650.977 900.927C650.32 905.197 646.05 911.437 641.288 918.827C633.077 930.979 623.059 946.088 626.344 955.941C627.657 959.883 630.778 962.674 636.033 964.645C637.018 964.864 638.004 964.973 638.989 964.973C650.977 964.973 670.684 945.759 688.256 928.68C700.08 917.021 710.426 907.003 717.159 904.047C748.032 890.088 790.238 883.355 827.68 877.607C842.296 875.308 856.255 873.173 869.064 870.546C898.296 864.798 926.706 862.006 953.31 862.006C1040.35 862.006 1113.43 893.208 1170.58 955.12C1176.49 961.525 1185.36 964.809 1196.69 964.809C1233.8 964.809 1297.68 926.71 1340.38 862.827C1366.99 823.085 1405.58 741.96 1365.51 644.576C1349.41 605.491 1326.59 588.083 1291.44 588.083C1264.68 588.083 1234.13 597.937 1198.49 609.432C1154.48 623.72 1104.56 639.649 1050.86 639.649C1008.82 639.649 970.225 630.124 932.947 610.089C817.663 548.67 814.214 436.67 824.232 346.02C828.009 311.533 821.932 284.436 806.66 267.357C795.985 255.533 781.37 249.129 764.619 249.129C732.267 249.129 692.033 274.255 677.417 322.372C663.786 367.533 696.631 408.917 734.566 457.034C778.085 512.049 827.352 574.289 817.663 657.714C812.9 699.098 797.792 738.675 777.264 763.965C761.334 783.344 747.376 785.15 732.596 786.957C721.757 788.27 710.59 789.584 697.452 797.795C687.927 804.036 684.807 814.71 681.522 826.041C679.059 834.088 676.596 842.628 671.505 849.689C668.385 854.123 663.13 854.945 658.039 855.93C651.634 857.079 645.065 858.229 641.452 865.619C639.153 870.71 642.437 876.95 645.886 883.519C648.842 889.431 652.127 895.507 650.977 900.927Z" fill="#07A1AF"/>
<path d="M1433.5 693.515C1437.77 696.307 1444.5 697.785 1452.71 697.785C1460.1 697.785 1468.8 696.471 1478 693.68V691.216C1468.8 694.172 1460.1 695.486 1452.71 695.486C1445.16 695.486 1438.59 694.008 1434.65 691.545C1415.43 679.228 1406.89 657.551 1397.86 634.56C1390.14 614.689 1382.09 593.997 1366.33 579.545V578.888H1365.67C1347.61 563.123 1323.47 555.404 1291.61 555.404C1260.57 555.404 1227.89 562.794 1201.61 568.871C1183.55 572.812 1168.11 576.425 1158.1 576.425C1152.35 576.425 1148.73 575.275 1147.26 572.812C1145.29 569.363 1146.76 563.287 1151.69 554.419C1174.35 512.871 1220.17 414.173 1217.05 373.282C1214.59 340.93 1198.99 307.593 1184.04 275.406C1162.37 228.766 1139.87 180.485 1156.12 134.503C1174.85 81.9518 1256.96 -12.1475 1315.42 -20.0302C1318.81 -20.5776 1322.48 -20.8513 1326.42 -20.8513C1364.36 -20.8513 1420.03 1.81141 1478 34.6558V32.1925C1420.03 -0.487704 1364.36 -23.1504 1326.42 -23.1504C1322.37 -23.1504 1318.6 -22.8767 1315.09 -22.3293C1255.97 -14.2824 1172.88 80.6381 1153.99 133.682C1137.4 180.649 1160.07 229.259 1181.91 276.391C1196.85 308.414 1212.29 341.587 1214.75 373.446C1217.54 409.904 1177.64 502.361 1149.72 553.27C1144.14 563.123 1142.82 569.692 1145.29 573.962C1147.26 577.082 1151.36 578.724 1158.1 578.724C1168.44 578.724 1184.04 575.111 1202.11 571.006C1228.22 565.094 1260.73 557.704 1291.61 557.704C1322.97 557.704 1346.95 565.258 1364.52 581.023C1379.96 595.146 1388.01 615.51 1395.72 635.381C1404.92 658.7 1413.63 680.87 1433.5 693.515Z" fill="#07A1AF"/>
<path fill-rule="evenodd" clip-rule="evenodd" d="M680.865 879.578C680.373 876.13 687.763 871.531 699.915 863.813C713.381 855.438 731.774 844.106 750.167 827.684C777.921 802.887 800.912 771.684 818.155 734.899C828.994 711.743 836.055 686.617 839.176 660.177C849.686 567.885 795.328 499.076 751.481 443.733C717.159 400.378 687.599 362.935 698.109 328.613C709.604 290.678 740.314 270.807 764.619 270.807C775.293 270.807 783.997 274.42 790.566 281.81C801.405 293.962 805.839 315.968 802.718 343.721C792.865 433.551 794.671 560.823 922.765 629.14C963.328 650.817 1005.2 661.327 1050.86 661.327C1108.01 661.327 1159.57 644.576 1205.23 629.961C1239.06 619.122 1268.12 609.597 1291.44 609.597C1310.33 609.597 1329.87 614.852 1345.64 652.787C1381.77 740.975 1346.79 814.711 1322.48 850.675C1291.61 896.986 1241.36 933.115 1208.02 933.115C1199.15 933.115 1191.93 930.487 1186.51 925.396C1109.98 852.153 1050.53 838.687 961.193 838.687C906.835 838.687 850.343 847.555 801.897 863.485C744.091 882.534 706.977 884.012 696.959 884.012C692.197 884.012 688.42 883.684 686.449 883.191C682.836 882.206 681.03 881.056 680.865 879.578ZM681.851 879.414C681.96 880.509 683.548 881.44 686.613 882.206C688.584 882.699 692.361 883.027 696.959 883.027C706.977 883.027 743.927 881.549 801.569 862.499C850.014 846.57 906.671 837.702 961.193 837.702C1011.61 837.702 1046.75 842.464 1078.61 853.631C1115.56 866.605 1150.05 889.103 1187.16 924.575C1192.42 929.666 1199.48 932.13 1208.02 932.13C1240.53 932.13 1291.44 895.344 1321.66 850.183C1345.8 814.218 1380.78 740.975 1344.65 653.28C1329.21 615.838 1310 610.582 1291.44 610.582C1268.29 610.582 1239.22 620.107 1205.56 630.946C1159.9 645.562 1108.17 662.312 1050.86 662.312C1005.04 662.312 962.999 651.638 922.272 629.961C793.686 561.48 791.88 433.715 801.733 343.557C804.853 316.132 800.583 294.29 789.909 282.466C783.504 275.405 774.965 271.792 764.619 271.792C740.642 271.792 710.425 291.334 698.93 328.941C688.748 362.771 718.144 399.885 752.302 443.076C796.149 498.583 850.835 567.556 840.161 660.342C837.041 686.782 829.979 712.072 819.141 735.227C801.733 772.177 778.742 803.543 750.824 828.505C732.431 844.927 713.874 856.259 700.408 864.634C689.405 871.531 681.358 876.622 681.851 879.414Z" fill="#07A1AF"/>
<path fill-rule="evenodd" clip-rule="evenodd" d="M773.651 296.917C778.742 302.501 782.519 320.73 779.891 344.542C777.921 362.442 778.413 375.251 778.742 384.776C779.399 400.213 779.563 407.111 768.231 411.216C766.699 411.654 765.221 411.873 763.797 411.873C762.484 411.873 761.115 411.654 759.692 411.216C750.824 408.589 738.836 394.301 729.803 375.744C720.279 355.873 717.158 337.809 721.264 327.134C727.669 311.205 747.047 293.469 764.619 293.469C769.874 293.469 772.173 295.111 773.651 296.917ZM772.501 297.903C771.187 296.425 769.217 295.111 764.619 295.111C747.704 295.111 728.982 312.354 722.742 327.791C718.801 337.973 721.921 355.545 731.281 374.923C740.149 393.152 751.809 407.111 760.185 409.738C762.703 410.504 765.166 410.45 767.575 409.574C777.921 405.961 777.756 400.213 777.099 384.776C776.771 375.251 776.278 362.278 778.249 344.378C780.877 321.058 777.264 303.322 772.501 297.903Z" fill="#07A1AF"/>
<path fill-rule="evenodd" clip-rule="evenodd" d="M650.156 616.658C648.733 618.519 646.817 619.45 644.408 619.45C638.66 619.45 630.614 614.031 620.432 607.298C603.024 595.638 579.376 579.708 550.802 579.708C547.298 579.708 543.795 579.927 540.291 580.365C531.916 581.515 526.825 582.007 523.377 582.007C519.271 582.007 517.136 581.35 516.479 579.708C515.001 576.095 521.242 569.526 534.872 555.075L538.485 551.298C550.473 538.653 557.37 526.007 562.297 516.811C567.224 507.943 570.508 502.195 575.107 502.195C576.913 502.195 578.884 503.181 581.018 505.151C604.831 526.664 668.385 593.339 650.156 616.658ZM580.033 506.301C578.063 504.659 576.42 503.838 575.107 503.838C571.494 503.838 568.373 509.257 563.775 517.632C558.684 526.829 551.787 539.474 539.635 552.447L536.186 556.06C524.526 568.377 516.972 576.588 517.957 579.051C518.395 579.927 520.202 580.365 523.377 580.365C526.661 580.365 531.752 579.872 540.127 578.723C543.631 578.285 547.189 578.066 550.802 578.066C579.869 578.066 603.845 594.16 621.417 605.984C631.27 612.553 639.153 617.808 644.408 617.808C646.269 617.808 647.747 617.096 648.842 615.673C665.1 594.981 609.429 533.069 580.033 506.301Z" fill="#07A1AF"/>
<path fill-rule="evenodd" clip-rule="evenodd" d="M585.781 533.561C597.933 539.638 627.986 571.168 629.136 586.934C629.245 588.685 628.917 589.999 628.15 590.875C627.603 591.532 626.782 591.86 625.687 591.86C622.402 591.86 616.819 588.412 609.1 583.813C595.963 575.931 578.062 565.256 561.148 564.928C557.37 564.764 555.071 562.793 555.071 559.18C555.236 550.641 570.016 532.576 581.511 532.576C583.044 532.576 584.467 532.905 585.781 533.561ZM584.796 535.532C583.81 535.094 582.715 534.875 581.511 534.875C571.329 534.875 557.535 551.626 557.37 559.344C557.37 561.479 558.52 562.629 561.148 562.629C578.719 562.957 596.948 573.796 610.25 581.843C617.147 585.948 623.059 589.561 625.687 589.561C626.344 589.561 626.508 589.233 626.508 589.233C626.672 589.069 627.001 588.576 626.836 587.098C625.687 572.811 597.769 542.101 584.796 535.532Z" fill="#07A1AF"/>
<path fill-rule="evenodd" clip-rule="evenodd" d="M526.989 216.614C517.464 199.371 503.013 173.424 479.365 160.45C457.852 148.626 447.506 138.28 446.684 127.77C445.699 114.139 461.3 102.151 479.529 88.3566C485.277 83.7584 491.353 79.1602 497.265 74.2335C534.707 42.5386 550.801 36.9551 570.672 36.9551C576.256 36.9551 582.332 37.4477 589.065 38.1046L592.35 38.2688C668.549 44.5093 721.592 74.0693 724.548 79.4886C725.096 80.5834 725.205 81.514 724.877 82.2804C724.056 84.2511 720.114 85.0722 712.56 86.7144C697.287 89.9988 668.713 96.2393 625.851 120.216C583.646 143.699 556.385 188.204 548.174 221.705C545.875 230.573 543.74 234.679 540.948 234.679C537.171 234.679 533.065 227.453 526.989 216.614ZM527.81 216.122C533.394 225.811 537.663 233.693 540.948 233.693C543.083 233.693 545.218 229.588 547.188 221.377C555.564 187.711 582.989 143.043 625.522 119.23C668.384 95.4182 696.959 89.1777 712.396 85.729C719.129 84.251 723.235 83.4299 724.056 81.7877C724.22 81.6235 724.22 80.9666 723.727 79.9813C720.936 74.8904 666.742 45.3304 592.35 39.2542L589.065 39.0899C582.168 38.4331 576.256 37.9404 570.672 37.9404C550.966 37.9404 535.036 43.524 497.922 74.8904C492.01 79.9813 485.933 84.5795 480.021 89.0135C462.121 102.808 446.684 114.632 447.67 127.77C448.491 137.623 459.001 147.969 479.693 159.465C503.67 172.767 518.285 198.878 527.81 216.122Z" fill="#07A1AF"/>
<path fill-rule="evenodd" clip-rule="evenodd" d="M525.019 263.581C508.268 236.648 482.813 196.085 444.714 169.481C421.066 152.895 409.735 139.1 409.406 126.291C409.078 109.869 425.828 96.8952 447.013 80.473C456.374 73.2472 466.227 65.5288 475.752 56.825C514.344 20.6961 533.887 9.85742 558.848 9.85742C563.447 9.85742 568.373 10.1859 574.121 10.8428C625.03 17.4117 678.074 32.8485 736.373 58.303C750.167 64.3792 766.425 71.7692 782.847 80.473C784.654 81.4583 787.446 82.6078 790.73 84.0858C801.569 88.8483 818.319 96.074 820.454 103.792C821.111 106.201 820.947 108.062 819.962 109.376C818.867 110.69 817.006 111.347 814.378 111.347C810.601 111.347 806.331 110.033 803.868 108.719C800.748 106.913 798.449 103.628 796.149 100.508C793.029 96.074 790.073 91.8043 784.49 91.3116C778.906 90.819 777.1 93.6107 775.129 96.5667C773.651 98.5374 772.337 100.672 769.545 101.822C767.903 102.479 766.37 102.807 764.947 102.807C761.17 102.807 758.378 100.672 755.422 98.3732C752.631 96.2383 750.003 94.1034 746.39 93.4465C745.624 93.337 744.857 93.2823 744.091 93.2823C737.686 93.2823 730.625 98.0447 723.727 102.643C718.472 106.256 713.053 109.869 707.962 111.182C682.672 117.916 661.159 126.291 642.109 136.801C580.361 170.959 561.804 235.006 553.265 280.167C551.951 287.557 549.98 291.006 547.024 291.006C542.098 291.006 535.365 280.167 525.019 263.581ZM525.84 263.088C535.529 278.689 542.59 290.021 547.024 290.021C549.323 290.021 551.13 286.736 552.279 280.003C560.819 234.678 579.54 170.302 641.616 135.98C660.83 125.306 682.343 116.93 707.798 110.197C712.725 108.883 717.815 105.435 723.235 101.822C730.132 97.2236 737.358 92.2969 744.091 92.2969C744.967 92.2969 745.788 92.4064 746.554 92.6254C750.331 93.2823 753.287 95.4172 755.915 97.5521C758.707 99.687 761.499 101.822 764.947 101.822C766.261 101.822 767.684 101.493 769.217 100.837C771.68 99.8512 772.994 98.0447 774.308 95.9098C776.279 92.9538 778.413 89.8336 784.654 90.3263C790.566 90.819 793.85 95.4172 796.971 99.8512C799.105 102.971 801.405 106.092 804.361 107.734C806.824 109.048 810.929 110.361 814.378 110.361C815.856 110.361 817.991 110.033 819.141 108.719C819.907 107.624 820.016 106.092 819.469 104.121C817.498 96.731 801.076 89.6694 790.237 84.9069C786.953 83.4289 784.161 82.2794 782.355 81.2941C765.933 72.5903 749.675 65.3645 735.88 59.2883C677.745 33.8339 624.866 18.3969 573.957 11.8281C568.373 11.1712 563.447 10.8428 558.848 10.8428C534.215 10.8428 514.837 21.6814 476.409 57.4819C466.884 66.3499 457.031 73.9041 447.506 81.2941C426.649 97.5521 410.063 110.361 410.391 126.291C410.72 138.772 421.887 152.238 445.207 168.66C483.635 195.428 508.925 236.156 525.84 263.088Z" fill="#07A1AF"/>
<path fill-rule="evenodd" clip-rule="evenodd" d="M660.83 703.532C637.511 703.532 620.924 690.722 603.352 676.928C592.678 668.716 581.675 660.177 568.537 654.265C555.399 648.189 539.141 645.233 520.256 645.233C484.455 645.233 443.893 655.743 411.377 664.282C388.221 670.359 368.186 675.614 355.541 675.614C348.479 675.614 344.045 673.807 342.075 670.523C339.283 665.76 341.089 657.878 347.658 646.054C362.931 618.793 389.699 594.324 415.646 570.512C436.667 551.133 456.702 532.905 470.332 513.526C518.285 445.867 545.382 336.987 478.051 235.17C467.376 218.912 447.341 205.281 428.127 191.979C391.506 167.017 357.019 143.205 382.802 104.613C395.775 85.2348 407.599 78.009 421.23 69.4695C429.769 64.3786 439.459 58.3024 450.626 48.6133C460.151 40.0737 468.033 31.8626 475.423 23.8157C494.966 2.79527 510.567 -13.627 542.919 -13.627C548.009 -13.627 553.593 -13.2985 559.341 -12.4774C637.018 -1.47451 722.906 16.9184 824.724 76.5311C958.565 155.029 1049.05 228.437 1086.82 351.111C1104.39 408.424 1097.83 471.65 1070.56 508.6C1054.47 530.277 1032.14 541.773 1005.7 541.773C991.245 541.773 975.48 538.324 958.894 531.591C927.856 518.946 908.806 490.043 900.759 443.239C893.861 402.512 895.996 353.574 897.967 310.384C898.624 298.231 899.117 286.9 899.445 275.733C900.923 227.944 887.785 188.366 861.51 161.27C837.697 136.636 803.211 123.17 764.783 123.17C713.381 123.17 661.487 146.161 622.238 186.231C576.748 232.706 563.446 282.302 580.033 342.407C594.813 395.451 630.449 448.494 668.22 504.494C681.522 524.201 695.153 544.4 707.633 564.435C736.865 611.239 731.774 644.247 722.413 663.79C712.067 685.139 690.883 700.576 668.384 703.203C665.866 703.422 663.348 703.532 660.83 703.532ZM603.845 676.271C621.417 689.737 637.839 702.546 660.83 702.546C663.348 702.546 665.866 702.437 668.384 702.218C690.39 699.59 711.246 684.482 721.428 663.297C730.789 644.083 735.715 611.403 706.812 565.092C694.331 544.893 680.701 524.694 667.399 505.151C629.628 448.987 593.992 395.943 579.212 342.571C571.165 313.996 570.179 288.049 575.927 263.252C582.496 235.662 597.44 210.208 621.581 185.575C660.994 145.34 713.217 122.185 764.783 122.185C803.539 122.185 838.19 135.815 862.167 160.613C888.606 187.874 901.908 227.615 900.43 275.733C900.102 286.9 899.609 298.395 898.952 310.548C896.982 353.574 894.847 402.348 901.744 443.075C909.627 489.386 928.512 518.125 959.222 530.606C975.808 537.339 991.41 540.787 1005.7 540.787C1031.81 540.787 1053.81 529.456 1069.74 507.943C1096.84 471.321 1103.41 408.424 1085.84 351.439C1048.23 228.929 957.908 155.85 824.067 77.5164C722.578 17.9037 636.854 -0.48917 559.177 -11.4921C553.429 -12.3132 548.009 -12.6416 542.919 -12.6416C510.895 -12.6416 495.623 3.7806 476.244 24.4726C468.69 32.5195 460.972 40.8948 451.283 49.2702C440.115 59.1235 430.426 65.1997 421.723 70.4548C408.256 78.6659 396.432 85.8917 383.623 105.27C358.333 143.041 392.491 166.361 428.62 191.158C447.998 204.46 468.033 218.255 478.872 234.677C509.253 280.659 522.719 330.583 519.106 383.134C515.822 429.116 499.235 474.442 471.153 514.183C457.523 533.562 437.488 551.954 416.303 571.333C390.52 594.981 363.752 619.286 348.644 646.546C342.239 658.042 340.268 665.596 342.896 670.03C344.702 672.986 348.808 674.628 355.541 674.628C368.022 674.628 388.057 669.373 411.212 663.297C443.728 654.758 484.291 644.247 520.256 644.247C539.634 644.247 555.564 647.203 569.03 653.28C582.168 659.192 593.171 667.895 603.845 676.271Z" fill="#07A1AF"/>
<path fill-rule="evenodd" clip-rule="evenodd" d="M665.264 669.866C639.482 669.866 608.936 652.13 584.467 638.007C578.884 634.723 573.793 631.767 569.03 629.139C560.491 624.541 548.502 622.242 532.573 622.242C512.209 622.242 488.726 626.019 468.034 629.303C450.954 632.095 436.175 634.394 425.5 634.394C418.767 634.394 414.333 633.409 411.87 631.438C411.651 631.219 411.541 630.891 411.541 630.453C411.049 624.869 436.667 595.638 466.391 561.808C502.192 521.081 542.919 474.77 544.561 461.961C545.546 454.899 542.59 449.48 539.634 444.225C536.514 438.477 533.394 432.729 535.036 424.847C536.35 418.771 540.127 415.322 543.576 411.873C548.174 407.603 552.936 403.169 553.101 392.988C553.101 389.046 550.145 382.149 546.696 374.102C543.412 366.548 539.634 357.844 537.992 350.454C536.022 341.258 537.5 335.51 542.59 332.39C543.685 331.733 544.835 331.404 546.039 331.404C558.192 331.404 566.567 370.653 571.494 393.973C572.972 400.87 574.121 406.29 574.942 408.26C590.543 447.674 622.402 488.236 654.426 526.336C680.209 556.881 708.948 604.013 705.006 636.365C703.692 647.368 698.602 656.072 689.898 662.312C683.165 667.403 674.789 669.866 665.264 669.866ZM584.96 637.022C609.265 651.309 639.646 668.881 665.264 668.881C674.625 668.881 682.672 666.418 689.405 661.655C697.78 655.415 702.707 647.039 704.021 636.201C707.798 604.177 679.388 557.374 653.769 526.993C621.581 488.893 589.722 448.166 574.121 408.589C573.3 406.618 572.15 401.363 570.508 394.137C565.91 372.624 557.37 332.39 546.039 332.39C545.054 332.39 544.069 332.718 543.083 333.375C538.485 336.003 537.171 341.586 538.978 350.29C540.62 357.516 544.233 366.219 547.517 373.609C551.13 381.821 554.086 388.882 554.086 392.988C553.922 403.498 548.995 408.096 544.233 412.694C540.62 415.979 537.335 419.263 536.022 425.011C534.379 432.565 537.335 437.985 540.62 443.732C543.576 449.152 546.532 454.735 545.547 461.961C543.74 475.099 503.013 521.574 467.048 562.465C438.802 594.652 412.034 625.198 412.526 630.289C412.526 630.617 412.526 630.617 412.526 630.617C414.826 632.588 419.095 633.409 425.5 633.409C436.175 633.409 450.79 631.11 467.869 628.318C488.561 625.034 512.209 621.257 532.573 621.257C548.667 621.257 560.819 623.556 569.523 628.318C574.285 630.781 579.376 633.902 584.96 637.022Z" fill="#07A1AF"/>
<path fill-rule="evenodd" clip-rule="evenodd" d="M669.37 638.337C664.279 642.114 657.874 643.92 650.484 643.92C629.792 643.92 603.517 629.14 585.781 615.345C573.135 605.656 557.699 600.894 538.649 600.894C524.69 600.894 510.895 603.357 498.743 605.656C489.546 607.299 481.499 608.777 475.095 608.777C469.347 608.777 465.734 607.627 463.271 605.164C462.176 603.85 461.683 602.481 461.793 601.058C462.121 595.803 469.511 589.563 480.842 580.202C506.625 558.525 549.98 522.232 557.042 455.393C558.027 446.525 559.669 442.912 562.461 442.912C566.402 442.912 572.807 451.616 584.303 467.381C595.798 483.147 613.206 507.123 638.167 535.369C652.619 551.627 681.686 594.161 678.73 621.093C677.909 628.647 674.789 634.395 669.37 638.337ZM668.713 637.515C673.968 633.738 676.924 628.155 677.745 621.093C680.701 594.325 651.798 552.284 637.511 536.026C612.385 507.78 594.977 483.803 583.481 467.874C572.479 452.93 565.91 443.898 562.461 443.898C560.326 443.898 559.012 447.51 558.027 455.557C550.801 522.724 507.447 559.181 481.499 580.859C470.825 589.891 462.942 596.296 462.778 601.058C462.669 602.262 463.107 603.357 464.092 604.343C466.227 606.642 469.675 607.791 475.095 607.791C481.335 607.791 489.382 606.313 498.579 604.671C510.731 602.372 524.526 599.909 538.649 599.909C558.027 599.909 573.628 604.671 586.437 614.689C604.009 628.319 630.121 642.935 650.484 642.935C657.71 642.935 663.786 641.128 668.713 637.515Z" fill="#07A1AF"/>
<path fill-rule="evenodd" clip-rule="evenodd" d="M957.58 278.689C956.43 264.401 955.773 256.519 957.908 254.219C959.058 252.906 961.028 253.234 963.656 255.369C973.017 263.087 1049.38 355.873 1027.05 443.732C1023.6 457.362 1016.37 464.917 1006.85 464.917C999.949 464.917 992.559 460.975 985.662 453.585C970.718 437.656 955.938 402.348 959.386 350.946C961.357 320.894 959.058 295.439 957.58 278.689ZM959.222 278.524C960.7 295.439 962.999 320.894 961.028 350.946C957.58 401.855 972.196 436.835 986.811 452.436C993.38 459.497 1000.44 463.274 1006.85 463.274C1015.55 463.274 1022.12 456.213 1025.4 443.403C1047.74 356.201 971.867 264.401 962.671 256.683C961.028 255.369 960.207 255.041 959.715 255.041C959.496 255.041 959.277 255.15 959.058 255.369C957.416 257.175 958.237 266.208 959.222 278.524Z" fill="#07A1AF"/>
<path fill-rule="evenodd" clip-rule="evenodd" d="M930.976 223.183C929.498 211.194 928.677 205.118 930.483 202.983C931.03 202.327 931.742 201.998 932.618 201.998C934.917 201.998 938.694 204.297 944.113 207.91C958.893 217.763 989.439 247.816 1013.42 290.35C1033.78 326.478 1055.29 382.807 1041.5 445.211C1036.73 466.724 1020.81 480.519 1000.93 480.519C986.975 480.519 973.017 473.786 961.685 461.469C940.008 438.15 930.155 397.751 933.932 347.992C938.858 284.602 933.767 244.696 930.976 223.183ZM931.961 223.183C934.753 244.532 939.844 284.602 934.917 347.992C931.14 397.587 940.829 437.657 962.342 460.812C973.509 472.801 987.14 479.534 1000.93 479.534C1020.31 479.534 1035.75 466.067 1040.51 445.047C1065.47 332.226 976.794 230.901 943.457 208.731C938.366 205.283 934.589 202.983 932.618 202.983C932.071 202.983 931.633 203.202 931.304 203.64C929.662 205.447 930.483 212.016 931.961 223.183Z" fill="#07A1AF"/>
<path fill-rule="evenodd" clip-rule="evenodd" d="M905.685 179.663C903.386 167.839 902.237 161.763 904.043 159.792C906.014 157.164 911.597 160.613 924.407 168.988C949.533 185.246 996.829 220.883 1030.99 276.061C1064.82 330.419 1075.49 387.24 1063.01 445.046C1054.47 484.131 1027.05 510.406 994.53 510.406C977.451 510.406 961.521 503.016 948.383 489.058C923.093 462.125 911.269 413.187 915.046 351.111C920.63 259.146 910.448 205.446 905.685 179.663ZM906.671 179.499C911.433 205.281 921.615 258.982 916.031 351.275C912.254 413.023 924.078 461.797 949.204 488.401C962.014 502.195 977.779 509.421 994.53 509.421C1026.55 509.421 1053.65 483.474 1062.03 444.718C1087.97 325 1007.67 224.167 923.914 169.809C914.389 163.569 908.641 159.956 905.85 159.956C905.412 159.956 905.029 160.12 904.7 160.449C903.386 162.091 904.536 168.66 906.671 179.499Z" fill="#07A1AF"/>
<path fill-rule="evenodd" clip-rule="evenodd" d="M537.007 145.176C530.766 145.176 523.212 141.07 512.045 131.874C507.775 128.425 506.461 123.991 508.268 119.229C515.822 98.2084 581.018 70.4549 610.25 72.4255C619.775 73.0824 621.745 73.9035 621.91 75.5457C622.238 77.3522 619.611 78.5017 612.549 81.6219C598.59 87.8624 572.643 99.1937 560.162 122.677C553.101 136.144 546.367 145.176 537.007 145.176ZM513.523 130.067C524.197 138.935 531.259 142.877 537.007 142.877C544.068 142.877 549.98 136.801 558.191 121.692C571.001 97.3873 597.441 85.7275 611.728 79.6513C614.848 78.1733 617.968 76.6953 619.282 75.8742C618.297 75.5457 615.669 75.2173 610.086 74.7246C609.1 74.7246 608.115 74.7246 607.13 74.7246C578.062 74.7246 517.3 100.836 510.403 119.886C509.089 123.991 510.074 127.276 513.523 130.067Z" fill="#07A1AF"/>
<path fill-rule="evenodd" clip-rule="evenodd" d="M533.886 178.185C528.795 178.185 524.69 174.408 521.405 166.853C515.986 153.88 504.819 148.296 494.966 143.37C485.605 138.607 477.558 134.666 476.244 125.634C475.752 122.021 477.886 117.258 482.485 111.511C500.385 89.669 550.308 60.2732 571.493 58.9594C576.748 58.631 582.168 58.4668 587.258 58.4668C633.569 58.4668 664.607 71.1119 665.428 77.845C665.428 78.6661 665.264 80.3083 661.98 81.1294C628.971 89.0121 588.08 103.135 565.581 143.862C553.1 166.689 542.426 178.185 533.886 178.185ZM564.267 143.205C586.93 101.821 628.15 87.3699 661.651 79.4872C662.472 79.323 663.786 78.8303 663.786 78.0092C663.129 72.7541 632.748 60.109 587.258 60.109C582.168 60.109 576.748 60.2732 571.493 60.6017C550.637 61.9154 501.534 90.9828 483.798 112.66C479.529 117.751 477.394 122.185 477.886 125.305C479.036 133.516 486.754 137.458 495.622 141.892C505.804 146.983 517.3 152.566 523.048 166.197C531.259 185.739 545.382 177.528 564.267 143.205Z" fill="#07A1AF"/>
<path fill-rule="evenodd" clip-rule="evenodd" d="M992.066 420.741C974.823 390.36 977.451 355.545 983.855 344.542C986.154 340.436 989.439 339.944 991.574 343.228C1008.65 368.518 1008.65 410.066 1002.25 422.055C1001.04 424.354 999.566 425.503 997.814 425.503C995.844 425.503 993.928 423.916 992.066 420.741ZM994.201 419.756C995.515 421.89 996.829 423.204 997.814 423.368C998.635 423.368 999.456 422.383 1000.28 420.905C1006.35 409.574 1006.03 368.682 989.767 344.542C989.439 344.049 988.782 343.392 988.289 343.392C987.633 343.392 986.647 344.213 985.826 345.691C979.914 356.037 977.451 390.36 994.201 419.756Z" fill="#07A1AF"/>
<path d="M1211.47 526.336C1213.77 529.785 1219.51 531.263 1230.52 531.263C1237.41 531.263 1245.79 530.606 1255.31 529.949C1267.14 529.128 1280.6 528.307 1294.4 528.307C1338.41 528.307 1367.97 537.667 1387.68 557.703C1406.07 571.826 1416.25 594.981 1425.12 615.18C1435.96 639.978 1445.32 661.163 1466.01 661.163C1468.31 661.163 1470.66 660.944 1473.07 660.506C1474.61 660.177 1476.25 659.739 1478 659.192V657.55C1476.14 658.097 1474.39 658.535 1472.74 658.863C1470.45 659.301 1468.2 659.52 1466.01 659.52C1446.47 659.52 1437.27 638.664 1426.6 614.523C1417.57 593.996 1407.38 570.84 1388.83 556.553C1368.79 536.189 1338.9 526.665 1294.4 526.665C1280.44 526.665 1267.14 527.486 1255.15 528.307C1245.63 528.964 1237.41 529.62 1230.52 529.62C1220.34 529.62 1214.75 528.307 1212.78 525.351C1211.8 523.873 1211.63 521.738 1212.78 519.11C1233.64 463.275 1251.04 392.495 1249.4 370.653C1246.45 332.554 1229.7 296.589 1213.44 261.774C1193.73 219.076 1175.01 178.842 1186.83 145.341C1203.42 98.7015 1278.96 17.7399 1319.85 12.1564C1321.82 11.8279 1324.01 11.6637 1326.42 11.6637C1358.28 11.6637 1414.45 34.4906 1478 72.2617V70.291C1414.45 32.8483 1358.28 10.0215 1326.42 10.0215C1323.9 10.0215 1321.66 10.1857 1319.69 10.5141C1278.31 16.0977 1201.94 97.7161 1185.36 144.848C1173.2 179.006 1192.09 219.569 1211.96 262.431C1228.22 297.082 1244.8 333.047 1247.76 370.818C1249.24 389.867 1233.64 458.512 1211.14 518.453C1209.99 521.738 1209.99 524.365 1211.47 526.336Z" fill="#07A1AF"/>
<path d="M1261.06 483.639C1267.14 492.343 1280.11 493.328 1297.85 494.642C1299.82 494.861 1301.84 495.025 1303.92 495.135C1309.51 495.627 1315.42 495.792 1321.66 496.12C1350.73 497.105 1383.57 498.255 1413.3 525.187L1413.79 525.516C1430.21 539.967 1440.06 565.422 1448.6 587.92C1457.31 610.419 1464.86 629.961 1476.85 629.961C1477.18 629.961 1477.67 629.961 1478 629.797V628.812C1477.67 628.976 1477.18 628.976 1476.85 628.976C1465.52 628.976 1458.13 609.762 1449.59 587.428C1440.89 564.929 1431.03 539.475 1414.45 524.859L1413.95 524.53C1384.07 497.27 1350.89 496.12 1321.66 495.135C1315.42 494.806 1309.51 494.642 1303.92 494.149C1301.84 494.04 1299.87 493.876 1298.01 493.657C1280.44 492.343 1267.63 491.358 1261.88 482.982C1256.3 475.1 1257.12 460.155 1264.35 434.701C1271.08 411.217 1273.71 389.704 1272.07 369.012C1268.78 326.807 1251.05 288.872 1233.97 252.086C1216.23 213.822 1199.48 177.693 1208.18 152.896C1222.8 111.512 1293.58 38.5969 1322.97 34.6556C1323.63 34.4914 1324.62 34.3271 1326.42 34.3271C1350.89 34.3271 1406.24 54.6907 1478 98.7023V97.5527C1406.24 53.7054 1350.89 33.3418 1326.42 33.3418C1324.62 33.3418 1323.47 33.506 1322.81 33.6703C1293.25 37.6116 1221.98 111.019 1207.2 152.567C1198.33 177.693 1215.24 214.15 1233.14 252.578C1250.22 289.2 1267.8 326.971 1271.08 369.012C1272.72 389.704 1270.09 411.053 1263.36 434.537C1255.97 460.484 1255.31 475.264 1261.06 483.639Z" fill="#07A1AF"/>
<path fill-rule="evenodd" clip-rule="evenodd" d="M653.933 781.046C627.657 781.046 609.264 766.266 589.722 750.829C575.106 739.005 559.834 726.852 540.62 721.104C537.664 720.283 533.886 719.791 529.452 719.791C509.582 719.791 478.544 728.33 442.579 738.184C396.761 750.664 345.031 764.952 302.99 764.952C273.923 764.952 253.066 758.219 239.436 744.588C226.955 731.943 220.55 713.058 220.715 688.588C220.879 645.562 277.864 599.252 328.116 558.36C357.676 534.22 385.594 511.393 399.224 491.85C427.306 451.452 452.104 407.933 443.728 362.279C438.802 335.839 423.693 320.074 407.6 303.323C398.567 293.962 389.207 284.109 381.16 271.957C373.77 260.79 369.828 250.608 366.38 241.74C359.811 224.989 354.556 211.687 329.266 200.027C321.547 196.414 315.471 193.787 310.544 191.652C290.838 183.277 290.673 183.112 282.791 162.749C281.313 158.643 279.342 153.717 276.879 147.64C266.861 123.007 259.635 120.872 252.41 120.872C250.439 120.872 248.468 121.036 246.169 121.365C243.706 121.529 241.078 121.858 238.286 121.858C232.21 121.858 223.014 120.872 210.697 112.333C200.844 105.6 196.902 99.0306 198.709 93.1186C205.606 71.1128 295.272 65.2008 307.096 65.2008C307.424 65.2008 307.698 65.2008 307.917 65.2008C318.263 59.9457 323.682 53.3769 329.43 46.4795C336.984 37.6115 344.702 28.2509 363.588 22.3389C370.157 20.204 375.576 18.5618 380.01 17.4122C403.001 10.6791 403.001 10.6791 413.019 -18.5525L414.168 -22.3296C415.811 -27.2562 414.661 -30.3765 413.347 -33.8251C411.377 -38.5876 409.57 -43.5142 416.468 -51.7253C420.08 -55.9951 431.576 -60.4291 442.743 -64.6989C449.476 -67.3265 456.045 -69.954 459.33 -71.9247C464.42 -75.0449 468.033 -79.4789 471.482 -83.5845C476.244 -89.3323 481.007 -95.08 489.546 -98.2002C495.13 -100.171 502.027 -101.156 509.91 -101.156C529.617 -101.156 552.608 -95.08 571.165 -90.1534C575.435 -89.0038 579.376 -88.0185 582.825 -87.0331C642.766 -72.2531 699.751 -45.3207 754.765 -19.3736L760.513 -16.5818C891.234 45.1658 990.26 114.468 1062.85 194.936C1111.62 248.966 1143.32 301.845 1159.24 356.203C1178.13 420.414 1164.66 498.583 1125.41 550.97C1105.05 578.231 1068.76 610.747 1012.1 610.747C997.322 610.747 982.049 608.448 966.612 604.014C831.785 564.929 836.219 432.73 850.835 311.698C855.105 276.555 848.536 247.98 831.95 229.095C817.827 213.329 796.642 204.626 772.173 204.626C726.519 204.626 668.384 235.992 650.484 293.962C629.792 360.637 672.162 415.323 717.158 473.293C763.798 533.398 812.079 595.474 784.818 672.495C769.217 716.999 711.082 774.969 662.144 780.553C659.407 780.881 656.67 781.046 653.933 781.046ZM591.2 749.022C610.25 764.295 628.478 778.746 653.933 778.746C656.56 778.746 659.188 778.582 661.816 778.254C709.933 772.834 767.41 715.521 782.683 671.674C809.451 595.803 761.663 534.22 715.352 474.771C671.997 418.936 627.165 361.129 648.185 293.306C666.578 234.186 725.698 202.326 772.173 202.326C797.299 202.326 819.14 211.359 833.592 227.617C850.671 246.995 857.404 276.062 853.134 312.027C838.519 432.073 834.085 563.287 967.269 601.715C982.542 606.149 997.65 608.448 1012.1 608.448C1067.94 608.448 1103.57 576.425 1123.61 549.492C1162.36 497.762 1175.83 420.414 1157.11 356.86C1141.18 302.83 1109.81 250.279 1061.2 196.414C988.782 116.274 890.084 47.1364 759.528 -14.6111L753.78 -17.2387C698.93 -43.1858 642.109 -70.1183 582.332 -84.8983C578.719 -85.7194 574.778 -86.8689 570.672 -87.8542C552.279 -92.7809 529.288 -98.8571 509.91 -98.8571C502.192 -98.8571 495.623 -97.8718 490.203 -96.0654C482.321 -93.1094 477.887 -87.8542 473.288 -82.1065C469.676 -77.8367 466.063 -73.2385 460.479 -69.954C457.03 -67.8191 450.462 -65.3558 443.564 -62.564C433.218 -58.6227 421.558 -54.0245 418.274 -50.2474C412.198 -43.1858 413.676 -39.2445 415.482 -34.6462C416.796 -31.1976 418.274 -27.2563 416.468 -21.6727L415.154 -17.8956C404.808 12.3213 404.644 12.6498 380.667 19.5471C376.233 20.8609 370.814 22.3389 364.245 24.4738C346.016 30.3858 338.79 38.9253 331.236 47.9575C325.488 54.8548 319.576 61.9164 308.574 67.5L308.081 66.5147L307.917 67.5C307.807 67.5 307.533 67.5 307.096 67.5C290.509 67.5 206.92 74.7258 200.844 93.7756C199.366 98.7022 203.143 104.286 212.011 110.362C223.671 118.409 232.046 119.558 238.286 119.558C240.914 119.558 243.542 119.23 246.005 119.066C248.304 118.737 250.275 118.573 252.41 118.573C262.099 118.573 269.489 123.171 279.014 146.655C281.477 152.896 283.448 157.822 284.926 161.928C292.48 181.47 292.48 181.47 311.53 189.681C316.292 191.652 322.368 194.28 330.251 197.892C356.362 210.045 361.782 223.675 368.515 240.919C371.963 249.622 375.74 259.64 383.13 270.807C391.013 282.631 400.374 292.32 409.242 301.681C425.664 318.76 440.937 334.69 446.028 361.786C454.403 408.261 429.441 452.437 401.195 493.164C387.4 513.035 359.318 535.862 329.594 560.002C279.67 600.73 223.178 646.712 223.014 688.588C222.85 712.565 228.926 730.794 241.078 742.946C254.216 756.248 274.58 762.653 302.99 762.653C344.702 762.653 396.268 748.53 441.922 736.049C478.051 726.031 509.253 717.492 529.452 717.492C534.215 717.492 538.156 717.984 541.276 718.97C560.983 724.717 576.256 737.034 591.2 749.022Z" fill="#07A1AF"/>
<path d="M962.342 -165.039C951.175 -157.156 935.902 -153.379 915.703 -153.379C891.891 -153.379 865.287 -158.634 841.803 -163.397C828.008 -166.189 815.035 -168.816 804.36 -169.802C799.105 -170.458 785.146 -171.772 767.903 -171.772C735.88 -171.772 694.824 -167.338 681.03 -146.81C674.953 -137.778 674.789 -126.447 680.208 -113.145C682.836 -106.904 689.569 -103.62 695.974 -100.336C701.229 -97.708 706.484 -95.0805 709.44 -90.9749C712.889 -86.2125 714.859 -79.6436 716.994 -73.2389C719.622 -64.6994 722.249 -55.8313 728.49 -50.5762C736.208 -44.1716 744.748 -41.0513 755.094 -41.0513C762.484 -41.0513 769.874 -42.5293 776.935 -44.0073C784.161 -45.4853 791.387 -46.7991 798.448 -46.7991C805.346 -46.7991 811.258 -45.4853 816.513 -42.6936C829.651 -35.9605 835.07 -26.9282 840.489 -18.2245C847.387 -6.72891 853.956 3.94554 875.469 9.03643C920.63 19.5467 932.946 30.7138 962.835 57.3178C966.612 60.7664 970.718 64.3793 975.316 68.3207C986.155 77.8456 994.037 88.5199 1001.76 99.0302C1008.49 108.227 1015.55 117.916 1024.75 126.62C1035.91 137.458 1046.59 142.221 1056.77 146.983C1070.4 153.059 1083.21 158.971 1094.87 179.006L1096.68 182.127C1111.29 207.417 1126.24 230.901 1135.27 230.901C1136.8 230.901 1138.06 230.353 1139.05 229.258C1142.33 225.646 1143.15 216.121 1141.84 200.027C1140.85 190.666 1134.12 182.127 1127.55 174.08C1120.49 165.212 1113.76 157.001 1114.08 147.804C1114.58 136.801 1121.31 131.382 1128.21 125.798C1133.46 121.529 1138.72 117.259 1141.84 110.526C1149.39 94.4319 1151.2 79.9804 1153 66.0215C1155.3 46.4791 1157.6 28.2504 1175.01 7.39421C1206.21 -29.72 1249.9 -57.802 1298.01 -71.5967C1313.94 -76.1949 1328.89 -78.3298 1343.34 -78.3298C1392.6 -78.3298 1427.75 -51.5616 1465.19 -23.3154C1469.46 -20.1404 1473.73 -16.9107 1478 -13.6262V-16.5822C1474.17 -19.4288 1470.34 -22.2753 1466.5 -25.1218C1428.9 -53.6965 1393.26 -80.6289 1343.34 -80.6289C1328.56 -80.6289 1313.61 -78.494 1297.36 -73.7316C1248.75 -59.7727 1204.73 -31.5265 1173.37 5.91619C1155.47 27.2651 1153.17 45.9864 1150.71 65.6931C1148.9 79.4878 1147.09 93.775 1139.87 109.54C1136.91 115.781 1131.82 119.886 1126.89 123.992C1119.67 129.74 1112.28 135.652 1111.78 147.804C1111.46 157.822 1118.68 166.854 1125.74 175.558C1132.15 183.44 1138.72 191.487 1139.54 200.191C1141.18 219.077 1139.21 225.645 1137.4 227.78C1136.75 228.437 1136.03 228.711 1135.27 228.601C1126.24 228.601 1106.86 195.264 1098.65 180.977L1096.84 177.857C1084.85 157.165 1071.55 151.253 1057.76 144.848C1047.57 140.25 1037.23 135.488 1026.39 124.977C1017.36 116.438 1010.3 106.913 1003.56 97.7164C995.844 87.2062 987.797 76.2033 976.794 66.6784C972.305 62.7371 968.145 59.0147 964.313 55.5113C934.096 28.5789 921.615 17.576 875.961 6.90151C855.434 1.97485 849.029 -8.37113 842.46 -19.374C836.876 -28.4062 831.293 -37.7669 817.662 -44.8285C811.915 -47.7845 805.674 -49.0982 798.448 -49.0982C791.223 -49.0982 783.833 -47.6203 776.607 -46.3065C769.545 -44.8285 762.155 -43.3505 755.094 -43.3505C745.24 -43.3505 737.194 -46.3065 729.968 -52.3827C724.384 -57.1451 721.592 -65.6847 719.129 -73.8958C717.158 -80.4647 715.024 -87.362 711.246 -92.4529C707.962 -96.8869 702.378 -99.6787 697.123 -102.306C690.719 -105.591 684.642 -108.547 682.343 -114.13C677.252 -126.611 677.417 -137.121 683 -145.497C696.138 -165.203 736.372 -169.473 767.903 -169.473C784.982 -169.473 798.941 -168.159 804.032 -167.667C814.706 -166.517 827.68 -163.89 841.475 -161.098C864.959 -156.335 891.727 -151.08 915.703 -151.08C936.395 -151.08 951.996 -155.022 963.656 -163.233C992.395 -183.432 984.02 -214.142 976.137 -243.702C967.597 -275.396 958.729 -308.241 994.201 -329.59C998.471 -332.053 1004.05 -333.367 1011.12 -333.367C1032.3 -333.367 1062.03 -321.871 1090.93 -310.54C1116.05 -300.851 1139.7 -291.654 1155.14 -291.326C1157.44 -291.217 1159.68 -291.162 1161.87 -291.162C1195.05 -291.162 1228.55 -296.91 1261.06 -302.493C1293.41 -308.077 1326.92 -313.66 1359.92 -313.66C1383.08 -313.66 1403.94 -311.033 1423.81 -305.285C1442.04 -300.03 1460.1 -293.132 1478 -285.25V-287.713C1460.43 -295.596 1442.53 -302.329 1424.3 -307.584C1404.26 -313.168 1383.24 -315.959 1359.92 -315.959C1326.59 -315.959 1293.09 -310.212 1260.57 -304.792C1228.22 -299.209 1194.88 -293.461 1161.87 -293.461C1159.57 -293.461 1157.44 -293.625 1155.3 -293.625C1140.19 -293.954 1116.71 -303.15 1091.75 -312.839C1062.68 -324.006 1032.63 -335.666 1011.12 -335.666C1003.56 -335.666 997.65 -334.352 993.052 -331.56C956.102 -309.226 965.134 -275.725 973.838 -243.209C982.049 -212.992 989.767 -184.417 962.342 -165.039Z" fill="#07A1AF"/>
</g>
<defs>
<clipPath id="clip0_54_2">
<rect width="1478" height="555" fill="white"/>
</clipPath>
</defs>
</svg>
